<svg xmlns="http://www.w3.org/2000/svg" width="1200" height="630" viewBox="0 0 1200 630">
  <!-- Background gradient -->
  <defs>
    <linearGradient id="bg-gradient" x1="0%" y1="0%" x2="100%" y2="100%">
      <stop offset="0%" style="stop-color:#0f172a;stop-opacity:1" />
      <stop offset="100%" style="stop-color:#1e293b;stop-opacity:1" />
    </linearGradient>
  </defs>

  <!-- Background -->
  <rect width="1200" height="630" fill="url(#bg-gradient)"/>

  <!-- BrainCircuit Logo (centered and scaled up) -->
  <g transform="translate(600, 315) scale(8)">
    <path d="M12 5a3 3 0 1 0-5.997.125 4 4 0 0 0-2.526 5.77 4 4 0 0 0 .556 6.588A4 4 0 1 0 12 18Z" fill="none" stroke="#0ea5e9" stroke-width="2" stroke-linecap="round" stroke-linejoin="round"/>
    <path d="M12 5a3 3 0 1 1 5.997.125 4 4 0 0 1 2.526 5.77 4 4 0 0 1-.556 6.588A4 4 0 1 1 12 18Z" fill="none" stroke="#0ea5e9" stroke-width="2" stroke-linecap="round" stroke-linejoin="round"/>
    <path d="M15 13a4.5 4.5 0 0 1-3-4 4.5 4.5 0 0 1-3 4" fill="none" stroke="#0ea5e9" stroke-width="2" stroke-linecap="round" stroke-linejoin="round"/>
    <path d="M17.599 6.5a3 3 0 0 0 .399-1.375" fill="none" stroke="#0ea5e9" stroke-width="2" stroke-linecap="round" stroke-linejoin="round"/>
    <path d="M6.003 5.125A3 3 0 0 0 6.401 6.5" fill="none" stroke="#0ea5e9" stroke-width="2" stroke-linecap="round" stroke-linejoin="round"/>
    <path d="M3.477 10.896a4 4 0 0 1 .585-.396" fill="none" stroke="#0ea5e9" stroke-width="2" stroke-linecap="round" stroke-linejoin="round"/>
    <path d="M19.938 10.5a4 4 0 0 1 .585.396" fill="none" stroke="#0ea5e9" stroke-width="2" stroke-linecap="round" stroke-linejoin="round"/>
    <path d="M6 18a4 4 0 0 1-1.967-.516" fill="none" stroke="#0ea5e9" stroke-width="2" stroke-linecap="round" stroke-linejoin="round"/>
    <path d="M19.967 17.484A4 4 0 0 1 18 18" fill="none" stroke="#0ea5e9" stroke-width="2" stroke-linecap="round" stroke-linejoin="round"/>
  </g>

  <!-- Text: AI Model Guide -->
  <text x="600" y="480" font-family="Arial, sans-serif" font-size="48" font-weight="bold" fill="#f8fafc" text-anchor="middle">AI Model Guide</text>

  <!-- Tagline -->
  <text x="600" y="530" font-family="Arial, sans-serif" font-size="24" fill="#cbd5e1" text-anchor="middle">Which AI Model To Use For What?</text>
</svg>
